<?xml version="1.0" encoding="UTF-8" standalone="no" ?>
<!DOCTYPE svg PUBLIC "-//W3C//DTD SVG 1.1//EN" "http://www.w3.org/Graphics/SVG/1.1/DTD/svg11.dtd">
<svg xmlns="http://www.w3.org/2000/svg" xmlns:xlink="http://www.w3.org/1999/xlink" version="1.1" width="1280" height="1024" viewBox="0 0 1280 1024" xml:space="preserve">
<desc>Created with Fabric.js 5.3.0</desc>
<defs>
</defs>
<g transform="matrix(1 0 0 1 640 512)" id="background-logo"  >
<rect style="stroke: none; stroke-width: 0; stroke-dasharray: none; stroke-linecap: butt; stroke-dashoffset: 0; stroke-linejoin: miter; stroke-miterlimit: 4; fill: rgb(255,255,255); fill-opacity: 0; fill-rule: nonzero; opacity: 1;"  paint-order="stroke"  x="-640" y="-512" rx="0" ry="0" width="1280" height="1024" />
</g>
<g transform="matrix(1.921153846153846 0 0 1.921153846153846 639.9999999999999 395.68640803889707)" id="logo-logo"  >
<g style=""  paint-order="stroke"   >
		<g transform="matrix(0.917930923744532 0 0 0.9179309237445321 0 0)"  >
<g style=""  paint-order="stroke"   >
		<g transform="matrix(1 0 0 1 0 0)"  >
<polygon style="stroke: none; stroke-width: 1; stroke-dasharray: none; stroke-linecap: butt; stroke-dashoffset: 0; stroke-linejoin: miter; stroke-miterlimit: 4; fill: rgb(229,161,62); fill-rule: nonzero; opacity: 1;"  paint-order="stroke"  points="100,100 0,100 0,95.12 95.12,95.12 95.12,-95.12 -95.12,-95.12 -95.12,0 -100,0 -100,-100 100,-100 100,100 " />
</g>
</g>
</g>
</g>
</g>
<g transform="matrix(1.9211538461538462 0 0 1.9211538461538462 642.418252403846 667.2506013112544)" id="text-logo"  >
<g style=""  paint-order="stroke"   >
		<g transform="matrix(1 0 0 1 0 0)" id="text-logo-path-0"  >
<path style="stroke: rgb(255,255,255); stroke-width: 0; stroke-dasharray: none; stroke-linecap: butt; stroke-dashoffset: 0; stroke-linejoin: miter; stroke-miterlimit: 4; fill: rgb(229,161,62); fill-rule: nonzero; opacity: 1;"  paint-order="stroke"  transform=" translate(-313.94500000000005, 18.55)" d="M 5.3 -37.1 L 5.3 0 L 9.01 0 L 9.01 -28.09 L 20.56 0 L 24.27 0 L 24.27 -37.1 L 20.56 -37.1 L 20.56 -9.01 L 9.01 -37.1 Z M 52.52 -29.15 L 52.52 -7.95 C 52.52 -0.85 56.55 0.53 61.53 0.53 C 66.57 0.53 70.54 -0.95 70.54 -7.95 L 70.54 -29.15 C 70.54 -36.25 66.57 -37.63 61.53 -37.63 C 56.55 -37.63 52.52 -36.25 52.52 -29.15 Z M 56.23 -9.01 L 56.23 -28.09 C 56.23 -32.91 58.3 -33.92 61.53 -33.92 C 64.77 -33.92 66.83 -32.91 66.83 -28.09 L 66.83 -9.01 C 66.83 -4.19 64.77 -3.18 61.53 -3.18 C 58.3 -3.18 56.23 -4.19 56.23 -9.01 Z M 122.01 -37.1 L 116.71 -37.1 L 110.4 -14.42 L 104.09 -37.1 L 98.79 -37.1 L 98.79 0 L 102.5 0 L 102.5 -29.47 L 108.49 -7.95 L 112.31 -7.95 L 118.3 -29.47 L 118.3 0 L 122.01 0 Z M 147.87 0 L 151.58 0 L 153.7 -10.07 L 163.19 -10.07 L 165.31 0 L 169.02 0 L 161.23 -37.1 L 155.66 -37.1 Z M 154.39 -13.25 L 158.47 -32.7 L 162.55 -13.25 Z M 202.83 -37.1 L 194.88 -37.1 L 194.88 0 L 202.83 0 C 207.87 0 211.84 -1.48 211.84 -8.48 L 211.84 -28.62 C 211.84 -35.72 207.87 -37.1 202.83 -37.1 Z M 198.59 -3.18 L 198.59 -33.92 L 202.83 -33.92 C 206.06 -33.92 208.13 -32.91 208.13 -28.09 L 208.13 -9.01 C 208.13 -4.19 206.06 -3.18 202.83 -3.18 Z M 269.13 -37.1 L 269.13 0 L 272.84 0 L 272.84 -28.09 L 284.4 0 L 288.11 0 L 288.11 -37.1 L 284.4 -37.1 L 284.4 -9.01 L 272.84 -37.1 Z M 313.97 0 L 317.68 0 L 319.8 -10.07 L 329.29 -10.07 L 331.41 0 L 335.12 0 L 327.33 -37.1 L 321.76 -37.1 Z M 320.49 -13.25 L 324.57 -32.7 L 328.65 -13.25 Z M 360.98 0 L 364.69 0 L 364.69 -13.78 L 368.4 -13.78 L 375.03 0 L 379 0 L 372.22 -14.2 C 375.29 -15 377.41 -17.17 377.41 -22.26 L 377.41 -28.62 C 377.41 -35.72 373.44 -37.1 368.4 -37.1 L 360.98 -37.1 Z M 364.69 -16.96 L 364.69 -33.92 L 368.4 -33.92 C 371.64 -33.92 373.7 -32.91 373.7 -28.09 L 373.7 -22.79 C 373.7 -17.97 371.64 -16.96 368.4 -16.96 Z M 404.87 0 L 408.58 0 L 408.58 -13.78 L 412.29 -13.78 L 418.91 0 L 422.89 0 L 416.1 -14.2 C 419.18 -15 421.3 -17.17 421.3 -22.26 L 421.3 -28.62 C 421.3 -35.72 417.32 -37.1 412.29 -37.1 L 404.87 -37.1 Z M 408.58 -16.96 L 408.58 -33.92 L 412.29 -33.92 C 415.52 -33.92 417.59 -32.91 417.59 -28.09 L 417.59 -22.79 C 417.59 -17.97 415.52 -16.96 412.29 -16.96 Z M 445.57 0 L 449.28 0 L 451.4 -10.07 L 460.89 -10.07 L 463.01 0 L 466.72 0 L 458.93 -37.1 L 453.36 -37.1 Z M 452.09 -13.25 L 456.17 -32.7 L 460.25 -13.25 Z M 503.18 -37.1 L 485.69 -37.1 L 485.69 -33.92 L 492.58 -33.92 L 492.58 0 L 496.29 0 L 496.29 -33.92 L 503.18 -33.92 Z M 535.41 -37.1 L 526.93 -37.1 L 526.93 -33.92 L 529.31 -33.92 L 529.31 -3.18 L 526.93 -3.18 L 526.93 0 L 535.41 0 L 535.41 -3.18 L 533.02 -3.18 L 533.02 -33.92 L 535.41 -33.92 Z M 559.68 -37.1 L 567.47 0 L 573.04 0 L 580.83 -37.1 L 577.12 -37.1 L 570.28 -4.4 L 563.39 -37.1 Z M 606.69 -37.1 L 606.69 0 L 622.59 0 L 622.59 -3.18 L 610.4 -3.18 L 610.4 -16.96 L 619.41 -16.96 L 619.41 -20.14 L 610.4 -20.14 L 610.4 -33.92 L 622.06 -33.92 L 622.06 -37.1 Z" stroke-linecap="round" />
</g>
</g>
</g>
<g transform="matrix(1.9211538461538462 0 0 1.9211538461538462 640.0331399038461 400.31398342711833)" id="tagline-3a78d944-c0db-44d4-8ad5-60158c925687-logo"  >
<g style=""  paint-order="stroke"   >
		<g transform="matrix(1 0 0 1 0 0)" id="tagline-3a78d944-c0db-44d4-8ad5-60158c925687-logo-path-0"  >
<path style="stroke: rgb(255,255,255); stroke-width: 0; stroke-dasharray: none; stroke-linecap: butt; stroke-dashoffset: 0; stroke-linejoin: miter; stroke-miterlimit: 4; fill: rgb(229,161,62); fill-rule: nonzero; opacity: 1;"  paint-order="stroke"  transform=" translate(-19.25, 24.15)" d="M 6.9 -48.3 L 6.9 0 L 11.73 0 L 11.73 -36.57 L 26.77 0 L 31.6 0 L 31.6 -48.3 L 26.77 -48.3 L 26.77 -11.73 L 11.73 -48.3 Z" stroke-linecap="round" />
</g>
</g>
</g>
</svg>