<svg width="292" height="277" viewBox="0 0 292 233" fill="none" xmlns="http://www.w3.org/2000/svg">
<g clip-path="url(#clip0_50_899)">
<path d="M185.75 130.16H145.624V128.202H183.792V51.8661H107.456V90.0342H105.498V49.908H185.75V130.16Z" fill="#E5A13E"/>
<path d="M11.2559 143.717V159.934H12.8776V147.655L17.9266 159.934H19.5484V143.717H17.9266V155.996L12.8776 143.717H11.2559ZM31.8975 147.192V156.459C31.8975 159.563 33.6592 160.166 35.8361 160.166C38.0393 160.166 39.7747 159.519 39.7747 156.459V147.192C39.7747 144.088 38.0393 143.485 35.8361 143.485C33.6592 143.485 31.8975 144.088 31.8975 147.192ZM33.5193 155.996V147.655C33.5193 145.548 34.4242 145.107 35.8361 145.107C37.2524 145.107 38.1529 145.548 38.1529 147.655V155.996C38.1529 158.103 37.2524 158.544 35.8361 158.544C34.4242 158.544 33.5193 158.103 33.5193 155.996ZM62.2742 143.717H59.9574L57.199 153.631L54.4407 143.717H52.1239V159.934H53.7456V147.052L56.3641 156.459H58.0339L60.6524 147.052V159.934H62.2742V143.717ZM73.5786 159.934H75.2003L76.1271 155.532H80.2755L81.2022 159.934H82.824L79.4187 143.717H76.9839L73.5786 159.934ZM76.4287 154.142L78.2122 145.64L79.9957 154.142H76.4287ZM97.6036 143.717H94.1284V159.934H97.6036C99.8068 159.934 101.542 159.287 101.542 156.227V147.423C101.542 144.32 99.8068 143.717 97.6036 143.717ZM95.7502 158.544V145.107H97.6036C99.0156 145.107 99.9205 145.548 99.9205 147.655V155.996C99.9205 158.103 99.0156 158.544 97.6036 158.544H95.7502ZM126.586 143.717V159.934H128.208V147.655L133.261 159.934H134.883V143.717H133.261V155.996L128.208 143.717H126.586ZM146.187 159.934H147.809L148.736 155.532H152.884L153.811 159.934H155.433L152.027 143.717H149.592L146.187 159.934ZM149.037 154.142L150.821 145.64L152.604 154.142H149.037ZM166.737 159.934H168.359V153.911H169.981L172.879 159.934H174.614L171.65 153.727C172.992 153.377 173.919 152.429 173.919 150.204V147.423C173.919 144.32 172.184 143.717 169.981 143.717H166.737V159.934ZM168.359 152.52V145.107H169.981C171.397 145.107 172.297 145.548 172.297 147.655V149.972C172.297 152.079 171.397 152.52 169.981 152.52H168.359ZM185.923 159.934H187.545V153.911H189.166L192.06 159.934H193.8L190.832 153.727C192.178 153.377 193.105 152.429 193.105 150.204V147.423C193.105 144.32 191.365 143.717 189.166 143.717H185.923V159.934ZM187.545 152.52V145.107H189.166C190.578 145.107 191.483 145.548 191.483 147.655V149.972C191.483 152.079 190.578 152.52 189.166 152.52H187.545ZM203.714 159.934H205.336L206.263 155.532H210.411L211.338 159.934H212.96L209.555 143.717H207.12L203.714 159.934ZM206.565 154.142L208.348 145.64L210.132 154.142H206.565ZM228.898 143.717H221.252V145.107H224.264V159.934H225.886V145.107H228.898V143.717ZM242.987 143.717H239.28V145.107H240.32V158.544H239.28V159.934H242.987V158.544H241.942V145.107H242.987V143.717ZM253.596 143.717L257.001 159.934H259.436L262.842 143.717H261.22L258.23 158.011L255.218 143.717H253.596ZM274.146 143.717V159.934H281.097V158.544H275.768V152.52H279.706V151.13H275.768V145.107H280.865V143.717H274.146Z" fill="#E5A13E"/>
<path d="M140.234 80.5302V101.644H142.346V85.6578L148.92 101.644H151.032V80.5302H148.92V96.5163L142.346 80.5302H140.234Z" fill="#E5A13E"/>
</g>
<defs>
<clipPath id="clip0_50_899">
<rect width="291.25" height="233" fill="white"/>
</clipPath>
</defs>
</svg>
