<svg width="292" height="227" viewBox="0 0 292 227" fill="none" xmlns="http://www.w3.org/2000/svg">
<g clip-path="url(#clip0_43_865)">
<path d="M185.75 124.161H145.624V122.202H183.792V45.8664H107.456V84.0344H105.498V43.9082H185.75V124.161Z" fill="white"/>
<path d="M11.2559 137.717V153.935H12.8776V141.656L17.9266 153.935H19.5484V137.717H17.9266V149.996L12.8776 137.717H11.2559ZM31.8975 141.192V150.46C31.8975 153.563 33.6592 154.167 35.8361 154.167C38.0393 154.167 39.7747 153.52 39.7747 150.46V141.192C39.7747 138.089 38.0393 137.485 35.8361 137.485C33.6592 137.485 31.8975 138.089 31.8975 141.192ZM33.5193 149.996V141.656C33.5193 139.549 34.4242 139.107 35.8361 139.107C37.2524 139.107 38.1529 139.549 38.1529 141.656V149.996C38.1529 152.103 37.2524 152.545 35.8361 152.545C34.4242 152.545 33.5193 152.103 33.5193 149.996ZM62.2742 137.717H59.9574L57.199 147.631L54.4407 137.717H52.1239V153.935H53.7456V141.052L56.3641 150.46H58.0339L60.6524 141.052V153.935H62.2742V137.717ZM73.5786 153.935H75.2003L76.1271 149.533H80.2755L81.2022 153.935H82.824L79.4187 137.717H76.9839L73.5786 153.935ZM76.4287 148.143L78.2122 139.64L79.9957 148.143H76.4287ZM97.6036 137.717H94.1284V153.935H97.6036C99.8068 153.935 101.542 153.288 101.542 150.228V141.424C101.542 138.32 99.8068 137.717 97.6036 137.717ZM95.7502 152.545V139.107H97.6036C99.0156 139.107 99.9205 139.549 99.9205 141.656V149.996C99.9205 152.103 99.0156 152.545 97.6036 152.545H95.7502ZM126.586 137.717V153.935H128.208V141.656L133.261 153.935H134.883V137.717H133.261V149.996L128.208 137.717H126.586ZM146.187 153.935H147.809L148.736 149.533H152.884L153.811 153.935H155.433L152.027 137.717H149.592L146.187 153.935ZM149.037 148.143L150.821 139.64L152.604 148.143H149.037ZM166.737 153.935H168.359V147.911H169.981L172.879 153.935H174.614L171.65 147.727C172.992 147.378 173.919 146.429 173.919 144.204V141.424C173.919 138.32 172.184 137.717 169.981 137.717H166.737V153.935ZM168.359 146.521V139.107H169.981C171.397 139.107 172.297 139.549 172.297 141.656V143.972C172.297 146.079 171.397 146.521 169.981 146.521H168.359ZM185.923 153.935H187.545V147.911H189.166L192.06 153.935H193.8L190.832 147.727C192.178 147.378 193.105 146.429 193.105 144.204V141.424C193.105 138.32 191.365 137.717 189.166 137.717H185.923V153.935ZM187.545 146.521V139.107H189.166C190.578 139.107 191.483 139.549 191.483 141.656V143.972C191.483 146.079 190.578 146.521 189.166 146.521H187.545ZM203.714 153.935H205.336L206.263 149.533H210.411L211.338 153.935H212.96L209.555 137.717H207.12L203.714 153.935ZM206.565 148.143L208.348 139.64L210.132 148.143H206.565ZM228.898 137.717H221.252V139.107H224.264V153.935H225.886V139.107H228.898V137.717ZM242.987 137.717H239.28V139.107H240.32V152.545H239.28V153.935H242.987V152.545H241.942V139.107H242.987V137.717ZM253.596 137.717L257.001 153.935H259.436L262.842 137.717H261.22L258.23 152.011L255.218 137.717H253.596ZM274.146 137.717V153.935H281.097V152.545H275.768V146.521H279.706V145.131H275.768V139.107H280.865V137.717H274.146Z" fill="white"/>
<path d="M140.234 74.5303V95.644H142.346V79.6579L148.92 95.644H151.032V74.5303H148.92V90.5164L142.346 74.5303H140.234Z" fill="white"/>
</g>
<defs>
<clipPath id="clip0_43_865">
<rect width="291.25" height="233" fill="white" transform="translate(0 -6)"/>
</clipPath>
</defs>
</svg>
